<?xml version="1.0" encoding="utf-8"?>
<!-- Generator: Adobe Illustrator 28.0.0, SVG Export Plug-In . SVG Version: 6.00 Build 0)  -->
<svg version="1.1" id="Layer_1" xmlns="http://www.w3.org/2000/svg" xmlns:xlink="http://www.w3.org/1999/xlink" x="0px" y="0px"
	 viewBox="0 0 70 70" style="enable-background:new 0 0 70 70;" xml:space="preserve">
<style type="text/css">
	.st0{fill:#B2B2B2;}
</style>
<g>
	<g>
		<g>
			<path class="st0" d="M35,70C15.7,70,0,54.3,0,35S15.7,0,35,0s35,15.7,35,35S54.3,70,35,70z M35,6C18.9,6,5.9,19,5.9,35
				s13,29.1,29.1,29.1s29.1-13,29.1-29.1C64,19,51,6,35,6z"/>
			<path class="st0" d="M34.1,44.7c-1.6,0-3-1.3-3-3c0-4.6,3-8.6,7.3-9.9c1.9-0.6,3.2-2.3,3.1-4.3c0-3.6-3-6.6-6.6-6.6
				s-6.6,3-6.6,6.6c0,1.6-1.3,3-3,3c-1.6,0-3-1.3-3-3C22.5,20.6,28.1,15,35,15s12.5,5.6,12.5,12.5c0,4.6-3,8.6-7.3,9.9
				c-1.9,0.6-3.2,2.3-3.1,4.3C37.1,43.3,35.7,44.7,34.1,44.7L34.1,44.7z"/>
			<circle class="st0" cx="34.1" cy="50.9" r="3.6"/>
		</g>
	</g>
</g>
</svg>
